<svg id="Layer_1" data-name="Layer 1" xmlns="http://www.w3.org/2000/svg" viewBox="0 0 1920 1080"><defs><style>.cls-1{fill:#fac150;}.cls-2{fill:#8f4216;}</style></defs><path class="cls-1" d="M742.9,415.68c-1.36,4-2.73,8.21-4.08,12.48-12.67,39.9-18.41,70.62-17.4,93.23a102,102,0,0,1-15.79,4.24c-19.81,3.94-47.73,5.94-83,5.94h-2.79c-36.3-.1-65-2.17-85.41-6.15a99.57,99.57,0,0,1-18-4.93c-.69-12.56-2.24-35.79-5.36-60.86-1.58-12.7-3.3-23.79-5.12-33.5,37.17,25.65,47.48,36.08,50.22,39.46l18,22.15,16.21-23.48,28.22-40.85,24.12,39.79L656,485l19.17-16.86c.21-.18,20.93-18.36,45.61-36.77,8.35-6.22,15.69-11.4,22.14-15.71m38.86-42.44C745.38,377.89,661,452.1,661,452.1l-41.24-68-47,68c-18.58-22.88-108.35-78.86-108.35-78.86C490.78,400.33,495.55,531,495.55,531s3.75,21.64,124.24,22h2.86c110.18-4.78,120.53-18.39,120.53-18.39,4.83-127.35,38.58-161.32,38.58-161.32Z"/><path class="cls-2" d="M632.46,548c10,18.77-4.69,52.12-35.08,77.54-32.68,27.34-71.17,35.18-86,17.5l-.32-.4c23.4-4.58,46.18-17.63,59.48-37.11,1.22-1.68,3.58-5.72,4.73-7.5,1.38-2.25,3.05-4.62,4.64-6.73C593.81,573.26,612.74,559.53,632.46,548Z"/><path class="cls-2" d="M629.78,544c.29.35.56.69.83,1-25.52,8.39-50.15,24.93-64.36,47.28l-3.71,6.14a86.22,86.22,0,0,1-9.12,11.76C541.1,623.35,525.56,632.63,509,639.5c-10.47-18.68,4.2-52.36,34.83-78C576.5,534.16,615,526.33,629.78,544Z"/><path class="cls-2" d="M674.55,548.17c15.62,2.2,29.22,25.57,31.21,54.91,2.13,31.56-10,58.07-27,59.23l-.38,0c7.47-16,9.59-35.41,3.71-51.9-.48-1.46-1.87-4.64-2.44-6.11-.74-1.81-1.44-3.85-2-5.73C672.83,582.4,672.85,565,674.55,548.17Z"/><path class="cls-2" d="M671,548c.33,0,.65,0,1,0-6.1,19-6.93,41,.27,59.26l2.06,4.91a63.78,63.78,0,0,1,3.07,10.61c2.49,13.11,1.27,26.5-1.85,39.45-15.78-1.88-29.58-25.39-31.58-55C641.81,575.71,653.92,549.19,671,548Z"/><path class="cls-2" d="M595.51,472.92c9.38-7.06,28.85-1.92,45.34,12.48,17.73,15.49,25.32,35.82,16.94,45.42l-.19.21c-4.51-12.38-13.59-23.69-25.37-29.27-1-.53-3.43-1.47-4.5-1.94-1.34-.56-2.78-1.27-4.07-2C612.62,491.84,603.5,482.69,595.51,472.92Z"/><path class="cls-2" d="M593.56,474.73c.17-.19.33-.37.5-.54,6.78,13.2,17.92,25.22,31.34,31.06l3.67,1.49a48.22,48.22,0,0,1,7.21,4c8.21,5.6,14.61,13.28,19.79,21.74-9.3,7.32-28.94,2.21-45.57-12.31C592.77,504.65,585.18,484.32,593.56,474.73Z"/><path class="cls-2" d="M942.89,486.32a1.48,1.48,0,0,1,1.06-.19,1.41,1.41,0,0,1,.78.43,1.06,1.06,0,0,1,.23.82,1.75,1.75,0,0,1-.58,1.06,48.43,48.43,0,0,1-16,10.44,54.83,54.83,0,0,1-20.73,3.71,60.25,60.25,0,0,1-23.31-4.26,50.62,50.62,0,0,1-17.32-11.62,49.76,49.76,0,0,1-10.8-17.28,60.62,60.62,0,0,1-3.71-21.36,54.41,54.41,0,0,1,7.35-27.41,56.77,56.77,0,0,1,8.49-11.15,55.18,55.18,0,0,1,11.07-8.76A119.14,119.14,0,0,0,858,403.33a74.54,74.54,0,0,0-16.43,5.56A45.85,45.85,0,0,0,829.67,417a40.81,40.81,0,0,0-7.78,10.25,44.77,44.77,0,0,0-4.31,12,65.22,65.22,0,0,0-1.33,13.25,42.34,42.34,0,0,0,1.22,10.72,42.9,42.9,0,0,0,2.73,7.74,26.79,26.79,0,0,0,2.9,4.85c.91,1.15,1.5,1.86,1.76,2.12a1.36,1.36,0,0,1,.39,1.44c-.16.55-.68.82-1.57.82-.2,0-.84,0-1.91-.11a31.92,31.92,0,0,1-4-.63q-2.43-.51-5.44-1.45a33.08,33.08,0,0,1-6.1-2.62,33.86,33.86,0,0,1-6-4.18,27.43,27.43,0,0,1-5.16-6.06,31.59,31.59,0,0,1-3.64-8.29A39.21,39.21,0,0,1,790.05,446a43.76,43.76,0,0,1,6.3-23.54,51.15,51.15,0,0,1,17.83-17q11.54-6.84,27.89-10.28a177.36,177.36,0,0,1,36.52-3.44c1.62,0,3.36.08,5.21.23s3.66.33,5.43.51l5,.51c1.54.15,2.83.23,3.87.23.73,0,1.76,0,3.09-.11l4.23-.24,4.38-.23q2.15-.12,3.63-.12a65.86,65.86,0,0,1,8.76.51,39.1,39.1,0,0,1,6.5,1.37,25.83,25.83,0,0,1,4.65,1.91,31.81,31.81,0,0,1,3.32,2.08q1.8,1.49,1,3.24t-4.07,2.23a62.33,62.33,0,0,1-12.71.43,99.84,99.84,0,0,1-12.63-1.68,23.41,23.41,0,0,1-2.35-.59c-1-.28-2-.54-3-.78a16.24,16.24,0,0,0-3-.39,3.62,3.62,0,0,0-2.23.51,26.15,26.15,0,0,0-6.76,7.59,45.38,45.38,0,0,0-4.66,10.67,78.88,78.88,0,0,0-2.66,13.06,123.91,123.91,0,0,0-.86,14.83,63.93,63.93,0,0,0,2.47,18.61,37,37,0,0,0,7.31,13.73,31.2,31.2,0,0,0,12.16,8.53,45.4,45.4,0,0,0,16.94,2.93,54.44,54.44,0,0,0,10.6-1.09A39.81,39.81,0,0,0,942.89,486.32Z"/><path class="cls-2" d="M986,428.05a37.79,37.79,0,0,1,14.82,2.85,35.33,35.33,0,0,1,11.62,7.83,35.9,35.9,0,0,1,7.58,11.69,37.73,37.73,0,0,1,2.74,14.39,36,36,0,0,1-3,14.55,37.91,37.91,0,0,1-8.14,11.93,38.37,38.37,0,0,1-27.22,11.07,37.62,37.62,0,0,1-14.82-2.86A35,35,0,0,1,958,491.68,35.9,35.9,0,0,1,950.4,480a37.65,37.65,0,0,1-2.74-14.44,36.08,36.08,0,0,1,3-14.51,38.22,38.22,0,0,1,35.36-23Zm-.78,70.16a9.28,9.28,0,0,0,6.53-2.58,19.55,19.55,0,0,0,4.61-7.08A47,47,0,0,0,999.13,478a88,88,0,0,0,0-25.65,47,47,0,0,0-2.78-10.53,19.59,19.59,0,0,0-4.61-7.07,9.54,9.54,0,0,0-13.07,0,20,20,0,0,0-4.65,7.07,44.51,44.51,0,0,0-2.78,10.53,91.83,91.83,0,0,0,0,25.65A44.42,44.42,0,0,0,974,488.55a20,20,0,0,0,4.65,7.08A9.31,9.31,0,0,0,985.21,498.21Z"/><path class="cls-2" d="M1068.9,383.46a31.65,31.65,0,0,1,8.37,1.06,23.55,23.55,0,0,1,6.61,2.86,14.25,14.25,0,0,1,4.34,4.22,9.4,9.4,0,0,1,1.57,5.16,9.6,9.6,0,0,1-2.43,6.73,8.56,8.56,0,0,1-6.65,2.66,9.52,9.52,0,0,1-6.8-2.43,8.77,8.77,0,0,1-2.58-6.72c0-.73,0-1.66.07-2.78a17.41,17.41,0,0,0-.15-3.25,6.45,6.45,0,0,0-1-2.7,2.84,2.84,0,0,0-2.5-1.13,5.58,5.58,0,0,0-4.46,2,14.13,14.13,0,0,0-2.66,5.67,48,48,0,0,0-1.29,8.69c-.24,3.36-.35,7-.35,11v14.86a.54.54,0,0,0,.62.62h14.47a6.38,6.38,0,0,1,2.31.24,1.06,1.06,0,0,1,.43,1,3.27,3.27,0,0,1-1.06,2.15,3.19,3.19,0,0,1-2.38,1.13h-13.85a.48.48,0,0,0-.54.55v52.64a8.83,8.83,0,0,0,1.36,5.16,11.32,11.32,0,0,0,3.13,3.09,12.84,12.84,0,0,0,3.45,1.61,18.89,18.89,0,0,0,2.3.54,1.63,1.63,0,0,1,.9.51.92.92,0,0,1,.2.75,1.28,1.28,0,0,1-.43.7,1.42,1.42,0,0,1-1,.31h-41a1.4,1.4,0,0,1-1-.31,1.3,1.3,0,0,1-.44-.7.92.92,0,0,1,.2-.75,1.63,1.63,0,0,1,.9-.51,18.91,18.91,0,0,0,2.31-.54,12.79,12.79,0,0,0,3.44-1.61,11.19,11.19,0,0,0,3.13-3.09,8.83,8.83,0,0,0,1.37-5.16V435.17c0-.42-.19-.63-.55-.63H1035a6.61,6.61,0,0,1-2.3-.23,1.06,1.06,0,0,1-.44-1,3.53,3.53,0,0,1,.9-2.15,2.75,2.75,0,0,1,2.23-1.14h2c.36,0,.55-.2.55-.62q0-8.06.27-13.69a80.2,80.2,0,0,1,1-9.7,33.75,33.75,0,0,1,1.88-7,27.68,27.68,0,0,1,3-5.48,20.6,20.6,0,0,1,5-4.85,26.69,26.69,0,0,1,6.14-3.12,33.1,33.1,0,0,1,6.8-1.65A53.71,53.71,0,0,1,1068.9,383.46Z"/><path class="cls-2" d="M1122.64,383.46a31.65,31.65,0,0,1,8.37,1.06,23.68,23.68,0,0,1,6.61,2.86,14.37,14.37,0,0,1,4.34,4.22,9.39,9.39,0,0,1,1.56,5.16,9.63,9.63,0,0,1-2.42,6.73,8.57,8.57,0,0,1-6.65,2.66,9.53,9.53,0,0,1-6.81-2.43,8.77,8.77,0,0,1-2.58-6.72c0-.73,0-1.66.08-2.78A16.59,16.59,0,0,0,1125,391a6.31,6.31,0,0,0-1-2.7,2.86,2.86,0,0,0-2.51-1.13,5.6,5.6,0,0,0-4.46,2,14.4,14.4,0,0,0-2.66,5.67,49.88,49.88,0,0,0-1.29,8.69q-.35,5-.35,11v14.86a.55.55,0,0,0,.63.62h14.47a6.38,6.38,0,0,1,2.31.24,1.08,1.08,0,0,1,.43,1,3.32,3.32,0,0,1-1.06,2.15,3.21,3.21,0,0,1-2.39,1.13h-13.84a.49.49,0,0,0-.55.55v52.64a8.83,8.83,0,0,0,1.37,5.16,11.19,11.19,0,0,0,3.13,3.09,12.79,12.79,0,0,0,3.44,1.61,18.91,18.91,0,0,0,2.31.54,1.63,1.63,0,0,1,.9.51.88.88,0,0,1,.19.75,1.23,1.23,0,0,1-.43.7,1.4,1.4,0,0,1-1,.31h-41a1.42,1.42,0,0,1-1-.31,1.28,1.28,0,0,1-.43-.7.89.89,0,0,1,.2-.75,1.63,1.63,0,0,1,.9-.51,19.34,19.34,0,0,0,2.3-.54,13,13,0,0,0,3.45-1.61,11.16,11.16,0,0,0,3.12-3.09,8.75,8.75,0,0,0,1.37-5.16V435.17q0-.63-.54-.63h-2.35a6.73,6.73,0,0,1-2.31-.23,1.06,1.06,0,0,1-.43-1,3.53,3.53,0,0,1,.9-2.15,2.74,2.74,0,0,1,2.23-1.14h2c.36,0,.54-.2.54-.62q0-8.06.28-13.69a82.48,82.48,0,0,1,1-9.7,34.39,34.39,0,0,1,1.88-7,27.68,27.68,0,0,1,3-5.48,20.78,20.78,0,0,1,5-4.85,26.69,26.69,0,0,1,6.14-3.12,33.19,33.19,0,0,1,6.81-1.65A53.59,53.59,0,0,1,1122.64,383.46Z"/><path class="cls-2" d="M1158.15,459c-.84,0-1.25.44-1.25,1.33a57.76,57.76,0,0,0,1.4,13.68,26,26,0,0,0,4.11,9.35,16.15,16.15,0,0,0,6.73,5.36,23.55,23.55,0,0,0,9.34,1.72,27.86,27.86,0,0,0,7.24-.86,32.08,32.08,0,0,0,5.51-2,29.93,29.93,0,0,0,3.84-2.16,17.07,17.07,0,0,1,2.19-1.33,1.42,1.42,0,0,1,1.72.2c.41.44.41,1.11,0,2-.16.31-.51.92-1.06,1.83a23.23,23.23,0,0,1-2.38,3.17,35,35,0,0,1-3.92,3.76,29.09,29.09,0,0,1-5.59,3.59,35.29,35.29,0,0,1-7.43,2.7,37.92,37.92,0,0,1-9.35,1.06,38.59,38.59,0,0,1-14.15-2.47,29.62,29.62,0,0,1-10.84-7.15,32.32,32.32,0,0,1-7-11.42,44,44,0,0,1-2.46-15.18,41.1,41.1,0,0,1,3.05-16.35,36.35,36.35,0,0,1,8-11.92,34.35,34.35,0,0,1,23.93-9.82,31.66,31.66,0,0,1,10.76,1.68,28.32,28.32,0,0,1,8,4.38,26.85,26.85,0,0,1,5.64,6,38.82,38.82,0,0,1,3.59,6.61,31.84,31.84,0,0,1,1.92,6.18,26.78,26.78,0,0,1,.55,4.62,1.16,1.16,0,0,1-.51,1.09,2.6,2.6,0,0,1-1.37.32Zm-.86-5.17q-.16,1,.93,1l1.57,0c.89,0,2-.06,3.25-.12l4.1-.15,4.19-.16,3.44-.12a14.7,14.7,0,0,0,1.84-.11,5,5,0,0,0,2.62-1.1,4.12,4.12,0,0,0,1.37-3.52,25.66,25.66,0,0,0-.63-5.24,22.44,22.44,0,0,0-2-5.63,15.18,15.18,0,0,0-3.49-4.5,7.58,7.58,0,0,0-5.16-1.84,7,7,0,0,0-4.22,1.29,11.68,11.68,0,0,0-3.09,3.37,22.1,22.1,0,0,0-2.15,4.57,45.64,45.64,0,0,0-1.41,4.89c-.37,1.59-.64,3.05-.82,4.38S1157.34,453.11,1157.29,453.78Z"/><path class="cls-2" d="M1229.09,459c-.83,0-1.25.44-1.25,1.33a57.71,57.71,0,0,0,1.41,13.68,26,26,0,0,0,4.1,9.35,16.15,16.15,0,0,0,6.73,5.36,23.6,23.6,0,0,0,9.35,1.72,27.78,27.78,0,0,0,7.23-.86,32.21,32.21,0,0,0,5.52-2,30.43,30.43,0,0,0,3.83-2.16,17.07,17.07,0,0,1,2.19-1.33,1.42,1.42,0,0,1,1.72.2c.42.44.42,1.11,0,2-.15.31-.51.92-1.05,1.83a23.41,23.41,0,0,1-2.39,3.17,34.81,34.81,0,0,1-3.91,3.76,29.73,29.73,0,0,1-5.59,3.59,35.7,35.7,0,0,1-7.43,2.7,38,38,0,0,1-9.35,1.06,38.6,38.6,0,0,1-14.16-2.47,29.66,29.66,0,0,1-10.83-7.15,32.32,32.32,0,0,1-7-11.42,43.78,43.78,0,0,1-2.47-15.18,41.28,41.28,0,0,1,3-16.35,36.67,36.67,0,0,1,8-11.92,34.39,34.39,0,0,1,23.94-9.82,31.6,31.6,0,0,1,10.75,1.68,28.38,28.38,0,0,1,8.06,4.38,26.8,26.8,0,0,1,5.63,6,38.21,38.21,0,0,1,3.6,6.61,31.1,31.1,0,0,1,1.91,6.18,25.82,25.82,0,0,1,.55,4.62,1.16,1.16,0,0,1-.51,1.09,2.57,2.57,0,0,1-1.37.32Zm-.86-5.17c-.11.68.21,1,.94,1l1.56,0c.89,0,2-.06,3.25-.12l4.11-.15,4.18-.16,3.44-.12a14.38,14.38,0,0,0,1.84-.11,5,5,0,0,0,2.62-1.1,4.12,4.12,0,0,0,1.37-3.52,25.66,25.66,0,0,0-.63-5.24,22.05,22.05,0,0,0-2-5.63,15,15,0,0,0-3.48-4.5,7.62,7.62,0,0,0-5.16-1.84,7.07,7.07,0,0,0-4.23,1.29,11.68,11.68,0,0,0-3.09,3.37,22.1,22.1,0,0,0-2.15,4.57,50.8,50.8,0,0,0-1.41,4.89c-.36,1.59-.64,3.05-.82,4.38S1228.28,453.11,1228.23,453.78Z"/><path class="cls-2" d="M906.6,606.19a10.37,10.37,0,0,0-5.05-4.18,18.51,18.51,0,0,0-6.37-1.06c-1.78,0-3,.34-3.68,1a4.89,4.89,0,0,0-1,3.52v31.36a10.21,10.21,0,0,0,1.57,5.95,12.84,12.84,0,0,0,3.64,3.6,14.08,14.08,0,0,0,4.1,1.84q2,.51,3,.66a2,2,0,0,1,1.06.55,1,1,0,0,1,.31.82,1.15,1.15,0,0,1-.43.78,1.67,1.67,0,0,1-1.17.35h-49.9a1.68,1.68,0,0,1-1.18-.35,1.19,1.19,0,0,1-.43-.78,1.09,1.09,0,0,1,.31-.82,2,2,0,0,1,1.06-.55q.95-.15,3-.66a14,14,0,0,0,4.11-1.84,13.1,13.1,0,0,0,3.64-3.6,10.29,10.29,0,0,0,1.56-5.95v-79.7a3.2,3.2,0,0,0-1.21-2.86,4.53,4.53,0,0,0-2.54-.82,18.17,18.17,0,0,0-7.47,1.88,39.42,39.42,0,0,0-8.33,5.28,61.9,61.9,0,0,0-15.41,18.77,63.16,63.16,0,0,0-5.05,12.52,50,50,0,0,0-1.91,13.88,41.79,41.79,0,0,0,4,18.46,26.61,26.61,0,0,0,2.89,4.85c.91,1.15,1.5,1.85,1.76,2.11a1.38,1.38,0,0,1,.39,1.45c-.16.55-.68.82-1.56.82q-.48,0-3.09-.27a39.47,39.47,0,0,1-6.38-1.33,44.21,44.21,0,0,1-8-3.21,28.79,28.79,0,0,1-7.82-5.94,31,31,0,0,1-6-9.51,36.11,36.11,0,0,1-2.39-13.92,37.65,37.65,0,0,1,7-21.71q7-10.12,20-17.68T854.93,548a180.94,180.94,0,0,1,41.58-4.38q4.46,0,9.46.43a74.59,74.59,0,0,1,9.94,1.52,50.83,50.83,0,0,1,9.46,3.09,31.88,31.88,0,0,1,8.14,5.13,21.36,21.36,0,0,1,4.73,6.13,27.76,27.76,0,0,1,2.58,7.48,27.2,27.2,0,0,1,.31,8,23.89,23.89,0,0,1-2.07,7.59,24.19,24.19,0,0,1-7.35,9.66,32.92,32.92,0,0,1-10.88,5.2c-.41.11-.65.26-.7.47s.1.37.47.47a22.14,22.14,0,0,1,10.48,4.85,42.89,42.89,0,0,1,8,9.11,95.75,95.75,0,0,1,6.65,11.89q3.09,6.54,6.25,13.18t6.85,12.91a55,55,0,0,0,8.53,11.11,42.61,42.61,0,0,0,9.26,7.15,52.86,52.86,0,0,0,9,4.11,46.61,46.61,0,0,0,7.23,1.88c2,.31,3.28.49,3.8.55a1.77,1.77,0,0,1,1.17.5,1.38,1.38,0,0,1,.39.94,1.3,1.3,0,0,1-.43.94,2.11,2.11,0,0,1-1.37.51c-1.82.21-3.39.32-4.69.35s-2.71,0-4.22,0q-18.39,0-32.35-6.45a67.79,67.79,0,0,1-24-18.5,76.63,76.63,0,0,1-9.35-13.69,138.12,138.12,0,0,1-5.79-12.59q-2.39-6-4.38-11.38A47,47,0,0,0,906.6,606.19Zm-14.32-9.77c1.36,0,2.86-.06,4.5-.16a22.46,22.46,0,0,0,4.93-.9,17.06,17.06,0,0,0,4.77-2.35,14.45,14.45,0,0,0,4.07-4.53,26.07,26.07,0,0,0,2.81-7.4,48,48,0,0,0,1.06-11,43.71,43.71,0,0,0-.86-9.42,17.44,17.44,0,0,0-2.46-6.1,9.36,9.36,0,0,0-3.92-3.33,12.7,12.7,0,0,0-5.2-1,15.67,15.67,0,0,0-4.69.67,9,9,0,0,0-3.64,2.15,9.78,9.78,0,0,0-2.34,3.75,16.41,16.41,0,0,0-.83,5.56v32.3C890.48,595.84,891.08,596.42,892.28,596.42Z"/><path class="cls-2" d="M979.5,610c-.84,0-1.25.44-1.25,1.33a57.7,57.7,0,0,0,1.4,13.68,26,26,0,0,0,4.11,9.35,16.15,16.15,0,0,0,6.73,5.36,23.55,23.55,0,0,0,9.34,1.72,27.44,27.44,0,0,0,7.24-.86,32.08,32.08,0,0,0,5.51-2,29.93,29.93,0,0,0,3.84-2.16,15.62,15.62,0,0,1,2.19-1.32,1.4,1.4,0,0,1,1.72.19c.42.44.42,1.11,0,2-.16.31-.51.92-1.06,1.83a23.23,23.23,0,0,1-2.38,3.17A35.69,35.69,0,0,1,1013,646a29.5,29.5,0,0,1-5.6,3.59,35.29,35.29,0,0,1-7.43,2.7,37.92,37.92,0,0,1-9.35,1.06,38.59,38.59,0,0,1-14.15-2.47,29.62,29.62,0,0,1-10.84-7.15,32.32,32.32,0,0,1-7-11.42,44,44,0,0,1-2.46-15.18,41.1,41.1,0,0,1,3-16.35,36.35,36.35,0,0,1,8-11.92,34.35,34.35,0,0,1,23.93-9.82,31.66,31.66,0,0,1,10.76,1.68,28.19,28.19,0,0,1,8.05,4.38,26.85,26.85,0,0,1,5.64,6,38.82,38.82,0,0,1,3.59,6.61,30.71,30.71,0,0,1,1.92,6.18,26.78,26.78,0,0,1,.55,4.62,1.16,1.16,0,0,1-.51,1.09,2.6,2.6,0,0,1-1.37.32Zm-.86-5.17c-.11.68.2,1,.94,1l1.56,0c.89,0,2-.06,3.25-.12l4.1-.15,4.19-.16,3.44-.12a14.54,14.54,0,0,0,1.84-.11,5,5,0,0,0,2.62-1.1,4.11,4.11,0,0,0,1.37-3.52,25.66,25.66,0,0,0-.63-5.24,22.44,22.44,0,0,0-2-5.63,15.18,15.18,0,0,0-3.49-4.5,7.58,7.58,0,0,0-5.16-1.84,7.06,7.06,0,0,0-4.22,1.29,11.68,11.68,0,0,0-3.09,3.37,22.1,22.1,0,0,0-2.15,4.57,45.64,45.64,0,0,0-1.41,4.89c-.37,1.59-.64,3.05-.82,4.38S978.69,604.11,978.64,604.78Z"/><path class="cls-2" d="M1082,579.05a33.29,33.29,0,0,1,11,1.64,25.72,25.72,0,0,1,13.73,10.88,34.11,34.11,0,0,1,3.52,7.58,44.07,44.07,0,0,1,1.8,8,59.35,59.35,0,0,1,.51,7.51,55.27,55.27,0,0,1-2.15,16,33.59,33.59,0,0,1-6.49,12.2,28.52,28.52,0,0,1-10.92,7.82,39.55,39.55,0,0,1-15.33,2.74,53.74,53.74,0,0,1-8.52-.59,42.61,42.61,0,0,1-6-1.33,23.33,23.33,0,0,1-3.56-1.37,4.69,4.69,0,0,1-1.29-.78.69.69,0,0,0-.74-.16.55.55,0,0,0-.35.55v24.25a8.75,8.75,0,0,0,1.37,5.16,11.16,11.16,0,0,0,3.12,3.09,12.84,12.84,0,0,0,3.45,1.61,19.34,19.34,0,0,0,2.3.54,1.63,1.63,0,0,1,.9.51.88.88,0,0,1,.2.75,1.28,1.28,0,0,1-.43.7,1.42,1.42,0,0,1-1,.31h-41a1.4,1.4,0,0,1-1-.31,1.23,1.23,0,0,1-.43-.7.88.88,0,0,1,.19-.75,1.63,1.63,0,0,1,.9-.51,18.91,18.91,0,0,0,2.31-.54,12.79,12.79,0,0,0,3.44-1.61,11.19,11.19,0,0,0,3.13-3.09,8.83,8.83,0,0,0,1.37-5.16V595.24a1.16,1.16,0,0,0-.94-1.25,9.05,9.05,0,0,1-1.14-.24l-2.22-.54-2.31-.55c-.71-.16-1.14-.26-1.29-.31-.68-.16-1-.51-1.06-1.06s.35-.92,1.14-1.13q3-.7,6.61-1.92t7.15-2.74c2.4-1,4.72-2.11,7-3.28a63.74,63.74,0,0,0,6-3.56,2.17,2.17,0,0,1,1.44-.39q.75.08.75,1.17v10.09a.68.68,0,0,0,.39.71.58.58,0,0,0,.7-.24c.47-.57,1.25-1.47,2.35-2.7a21.64,21.64,0,0,1,4.5-3.67,30.21,30.21,0,0,1,7-3.21A31.66,31.66,0,0,1,1082,579.05Zm7.82,39.27c0-1.2,0-2.77,0-4.7a57.88,57.88,0,0,0-.47-6.25,51.33,51.33,0,0,0-1.37-6.81,21.65,21.65,0,0,0-2.74-6.18,15,15,0,0,0-4.62-4.5,12.89,12.89,0,0,0-7-1.76,16.26,16.26,0,0,0-8.52,2,14.38,14.38,0,0,0-4.93,4.77,16.78,16.78,0,0,0-2.27,6,32.94,32.94,0,0,0-.55,5.6v21.12a37.21,37.21,0,0,0,.67,6.65,24.3,24.3,0,0,0,2.38,7,16.2,16.2,0,0,0,4.7,5.51,12.27,12.27,0,0,0,7.58,2.23,13.05,13.05,0,0,0,7.87-2.35,17.44,17.44,0,0,0,5.31-6.45,34.14,34.14,0,0,0,3-9.7A73.7,73.7,0,0,0,1089.86,618.32Z"/><path class="cls-2" d="M1201.72,649.13a1.7,1.7,0,0,1,.9.51.92.92,0,0,1,.19.75,1.23,1.23,0,0,1-.43.7,1.41,1.41,0,0,1-1,.31h-28.31a2.19,2.19,0,0,1-1.37-.39,1.48,1.48,0,0,1-.51-1.25v-4.61a29.8,29.8,0,0,1-8.53,5.74,30.3,30.3,0,0,1-13,2.47A35.16,35.16,0,0,1,1139,652a21.83,21.83,0,0,1-7.2-3.75,16.6,16.6,0,0,1-4.38-5.4,25.09,25.09,0,0,1-2.19-6.34,38.52,38.52,0,0,1-.78-6.53q-.12-3.24-.12-6.06V593.29a9.14,9.14,0,0,0-1.25-5,10.06,10.06,0,0,0-2.86-3,10.29,10.29,0,0,0-3.13-1.45l-2.15-.55a1.21,1.21,0,0,1-.9-.47,1,1,0,0,1-.19-.78,1.23,1.23,0,0,1,.43-.7,1.41,1.41,0,0,1,1-.32h28.31c1.25,0,1.88.68,1.88,2V628.8a47.46,47.46,0,0,0,.58,6.26,18.12,18.12,0,0,0,1.88,5.67,10.87,10.87,0,0,0,3.84,4.1,12.12,12.12,0,0,0,6.6,1.57,11.6,11.6,0,0,0,6.93-1.84,12.1,12.1,0,0,0,3.87-4.65,19.64,19.64,0,0,0,1.72-6.22,57.48,57.48,0,0,0,.39-6.53V593.29a9.14,9.14,0,0,0-1.25-5,10.06,10.06,0,0,0-2.86-3,10.24,10.24,0,0,0-3.12-1.45l-2.16-.55a1.21,1.21,0,0,1-.9-.47,1,1,0,0,1-.19-.78,1.23,1.23,0,0,1,.43-.7,1.41,1.41,0,0,1,1-.32h28.31c1.25,0,1.88.68,1.88,2v56.08a9.14,9.14,0,0,0,1.25,5,10.06,10.06,0,0,0,2.86,3,11.39,11.39,0,0,0,3.13,1.49A17.17,17.17,0,0,0,1201.72,649.13Z"/><path class="cls-2" d="M1260.62,579.05a33.29,33.29,0,0,1,11,1.64,25.74,25.74,0,0,1,13.72,10.88,34.11,34.11,0,0,1,3.52,7.58,44.07,44.07,0,0,1,1.8,8,59.35,59.35,0,0,1,.51,7.51,55.27,55.27,0,0,1-2.15,16,33.44,33.44,0,0,1-6.49,12.2,28.48,28.48,0,0,1-10.91,7.82,39.55,39.55,0,0,1-15.33,2.74,53.11,53.11,0,0,1-8.69-.63,34.83,34.83,0,0,1-6.84-1.8A28.19,28.19,0,0,1,1235,648a49.21,49.21,0,0,1-5.28-4.11,2,2,0,0,0-.59-.31c-.18-.05-.4,0-.66.31-.58.47-1.37,1.17-2.39,2.08s-2.1,1.91-3.24,3-2.29,2.19-3.41,3.28-2,2-2.7,2.82a1.14,1.14,0,0,1-1.33.43,1.23,1.23,0,0,1-.7-1.29v-76q0-5.72,0-10.56t0-8.45v-7.66a1.16,1.16,0,0,0-.94-1.26,8.21,8.21,0,0,1-1.13-.27c-.66-.18-1.4-.36-2.23-.55s-1.61-.36-2.31-.54a7.33,7.33,0,0,0-1.29-.28c-.68-.15-1-.52-1.06-1.09s.35-.94,1.14-1.1a68.66,68.66,0,0,0,6.61-1.91c2.37-.81,4.75-1.73,7.15-2.74s4.72-2.11,7-3.29a62.66,62.66,0,0,0,6-3.56,2.18,2.18,0,0,1,1.45-.39c.49.05.74.45.74,1.18v54.2a.68.68,0,0,0,.47.39c.21.06.39,0,.55-.31.46-.57,1.25-1.47,2.34-2.7a22.18,22.18,0,0,1,4.5-3.67,30.21,30.21,0,0,1,7-3.21A31.72,31.72,0,0,1,1260.62,579.05Zm7.82,39.27c0-1.2,0-2.77,0-4.7a55.44,55.44,0,0,0-.47-6.25,49.78,49.78,0,0,0-1.37-6.81,21.65,21.65,0,0,0-2.74-6.18,15.11,15.11,0,0,0-4.61-4.5,12.94,12.94,0,0,0-7-1.76,16.3,16.3,0,0,0-8.53,2,14.38,14.38,0,0,0-4.93,4.77,17,17,0,0,0-2.27,6,33.88,33.88,0,0,0-.54,5.6v21.12a38.07,38.07,0,0,0,.66,6.65,24,24,0,0,0,2.39,7,16.17,16.17,0,0,0,4.69,5.51,12.28,12.28,0,0,0,7.59,2.23,13,13,0,0,0,7.86-2.35,17.46,17.46,0,0,0,5.32-6.45,34.15,34.15,0,0,0,3-9.7A73.66,73.66,0,0,0,1268.44,618.32Z"/><path class="cls-2" d="M1326.71,638.73a8.83,8.83,0,0,0,1.37,5.16,11.19,11.19,0,0,0,3.13,3.09,12.79,12.79,0,0,0,3.44,1.61,18.91,18.91,0,0,0,2.31.54,1.66,1.66,0,0,1,.9.51.92.92,0,0,1,.19.75,1.23,1.23,0,0,1-.43.7,1.4,1.4,0,0,1-1,.31h-41a1.42,1.42,0,0,1-1-.31,1.28,1.28,0,0,1-.43-.7.89.89,0,0,1,.2-.75,1.63,1.63,0,0,1,.89-.51,18.91,18.91,0,0,0,2.31-.54,12.79,12.79,0,0,0,3.44-1.61,11.06,11.06,0,0,0,3.13-3.09,8.83,8.83,0,0,0,1.37-5.16V551.05a1.15,1.15,0,0,0-.94-1.25,9.09,9.09,0,0,1-1.13-.24l-2.23-.55c-.83-.2-1.6-.39-2.31-.54s-1.13-.26-1.29-.32c-.68-.15-1-.51-1-1s.35-.93,1.13-1.14a67.84,67.84,0,0,0,6.61-1.91q3.55-1.21,7.16-2.74c2.39-1,4.71-2.11,7-3.29a61.46,61.46,0,0,0,6-3.56,2.18,2.18,0,0,1,1.45-.39c.49.06.74.45.74,1.18Z"/><path class="cls-2" d="M1372.23,639.12a9.14,9.14,0,0,0,1.25,5,10.06,10.06,0,0,0,2.86,3,11.53,11.53,0,0,0,3.13,1.49,17.59,17.59,0,0,0,2.15.5,1.63,1.63,0,0,1,.9.51.88.88,0,0,1,.19.75,1.23,1.23,0,0,1-.43.7,1.4,1.4,0,0,1-1,.31H1342a1.42,1.42,0,0,1-1-.31,1.28,1.28,0,0,1-.43-.7.89.89,0,0,1,.2-.75,1.63,1.63,0,0,1,.9-.51,18,18,0,0,0,2.15-.5,11.53,11.53,0,0,0,3.13-1.49,9.91,9.91,0,0,0,2.85-3,9.06,9.06,0,0,0,1.25-5V595.63a1.16,1.16,0,0,0-.94-1.25,10.27,10.27,0,0,1-1.13-.23l-2.23-.55c-.83-.21-1.6-.39-2.31-.55s-1.13-.26-1.29-.31c-.67-.16-1-.51-1-1.06s.35-.92,1.13-1.13a67.27,67.27,0,0,0,6.61-1.92q3.55-1.21,7.16-2.74c2.4-1,4.72-2.11,7-3.28a61.46,61.46,0,0,0,6-3.56,2.18,2.18,0,0,1,1.45-.39c.5.05.74.44.74,1.17Zm.63-88.07a12.12,12.12,0,0,0-2.62-3.95,12.4,12.4,0,0,0-4-2.66,13.05,13.05,0,0,0-5.12-1,13.21,13.21,0,0,0-5.17,1,13.39,13.39,0,0,0-4.18,2.73,13,13,0,0,0-2.78,4,12,12,0,0,0-1,4.89,12.66,12.66,0,0,0,.94,4.85,11.64,11.64,0,0,0,2.62,3.91,12.82,12.82,0,0,0,9,3.6,13.07,13.07,0,0,0,5.2-1,13.91,13.91,0,0,0,4.18-2.7,12.12,12.12,0,0,0,2.82-4,12,12,0,0,0,1-4.89A12.66,12.66,0,0,0,1372.86,551.05Z"/><path class="cls-2" d="M1422,583.35a8.88,8.88,0,0,0-5.75,2.15,17.59,17.59,0,0,0-4.5,6.07,37.56,37.56,0,0,0-2.89,9.42,67.07,67.07,0,0,0-1,12.16,39.56,39.56,0,0,0,1.68,12,27.43,27.43,0,0,0,4.66,9,20.45,20.45,0,0,0,7,5.63,19.33,19.33,0,0,0,8.6,2,24,24,0,0,0,8.18-1.33,39.44,39.44,0,0,0,6.57-3,35.82,35.82,0,0,0,4.69-3.13,15.28,15.28,0,0,1,2.55-1.8,1.47,1.47,0,0,1,1.75.2c.45.44.43,1.11,0,2-.32.58-.84,1.44-1.57,2.59a31.62,31.62,0,0,1-2.93,3.79,44.42,44.42,0,0,1-4.42,4.26,33.19,33.19,0,0,1-6,4,35.8,35.8,0,0,1-7.66,2.93,36.76,36.76,0,0,1-9.5,1.14,42.69,42.69,0,0,1-14.63-2.35,30.32,30.32,0,0,1-11.11-6.88,30,30,0,0,1-7.08-11.15,47.34,47.34,0,0,1-.58-28.27,36.25,36.25,0,0,1,5-10.09,32.91,32.91,0,0,1,7.08-7.28,42,42,0,0,1,8.18-4.81,40.74,40.74,0,0,1,8.25-2.66,37.25,37.25,0,0,1,7.35-.82,45.83,45.83,0,0,1,9.78,1,28.39,28.39,0,0,1,7.66,2.74,15.39,15.39,0,0,1,5,4.14A8.35,8.35,0,0,1,1448,592a9.13,9.13,0,0,1-.82,4.07,8.06,8.06,0,0,1-2.11,2.7,8.43,8.43,0,0,1-2.9,1.53,11.58,11.58,0,0,1-3.24.46,11.27,11.27,0,0,1-4.42-.86,7.36,7.36,0,0,1-3.41-2.89,12.75,12.75,0,0,1-1.64-3.83q-.63-2.36-1.45-4.54a12.24,12.24,0,0,0-2.15-3.75A4.83,4.83,0,0,0,1422,583.35Z"/></svg>